<svg xmlns="http://www.w3.org/2000/svg" viewBox="0 0 64 64">
  <rect width="64" height="64" rx="14" fill="#E1DCC9"/>
  <g fill="none" stroke="#1F150C" stroke-linecap="round" stroke-linejoin="round" stroke-width="4.5" transform="translate(0 1)">
    <path d="M7.9 34.45A5.33 5.33 0 0 0 5.33 39v8.64a5.33 5.33 0 0 0 2.59 4.56l8 4.8a5.33 5.33 0 0 0 5.49 0L32 50.67V36l-13.33-8-10.75 6.45Z"/>
    <path d="m18.67 44-12.64-7.6"/>
    <path d="m18.67 44 13.33-8"/>
    <path d="M18.67 44v13.79"/>
    <path d="M32 36v14.67L42.59 57a5.33 5.33 0 0 0 5.49 0l8-4.8a5.33 5.33 0 0 0 2.59-4.56V39a5.33 5.33 0 0 0-2.59-4.56L45.33 28 32 36Z"/>
    <path d="m45.33 44-13.33-8"/>
    <path d="m45.33 44 12.64-7.6"/>
    <path d="M45.33 44v13.79"/>
    <path d="M21.25 11.79a5.33 5.33 0 0 0-2.59 4.56V28L32 36l13.33-8V16.35a5.33 5.33 0 0 0-2.59-4.56l-8-4.8a5.33 5.33 0 0 0-5.49 0l-8 4.8Z"/>
    <path d="M32 21.33 19.36 13.73"/>
    <path d="m32 21.33 12.64-7.6"/>
    <path d="M32 36V21.33"/>
  </g>
</svg>
